<mxfile host="app.diagrams.net" modified="2024-06-25T13:54:59.544Z" agent="Mozilla/5.0 (Windows NT 10.0; Win64; x64) AppleWebKit/537.36 (KHTML, like Gecko) Chrome/126.0.0.0 Safari/537.36" etag="WbW5X8cAMB6BRhjlTAFr" version="22.1.21" type="github" pages="4">
  <diagram name="Diagram przepływu danych" id="2YBvvXClWsGukQMizWep">
    <mxGraphModel dx="1195" dy="622" grid="1" gridSize="10" guides="1" tooltips="1" connect="1" arrows="1" fold="1" page="1" pageScale="1" pageWidth="850" pageHeight="1100" math="0" shadow="0">
      <root>
        <mxCell id="0" />
        <mxCell id="1" parent="0" />
        <mxCell id="jEQE_5Eg6NX0n7uKmegY-1" value="Client" style="shape=umlActor;verticalLabelPosition=bottom;verticalAlign=top;html=1;" vertex="1" parent="1">
          <mxGeometry x="410" y="180" width="30" height="60" as="geometry" />
        </mxCell>
        <mxCell id="jEQE_5Eg6NX0n7uKmegY-3" value="UserRequest" style="html=1;verticalAlign=bottom;endArrow=block;curved=0;rounded=0;exitX=0.5;exitY=0.5;exitDx=0;exitDy=0;exitPerimeter=0;" edge="1" parent="1" source="jEQE_5Eg6NX0n7uKmegY-1" target="jEQE_5Eg6NX0n7uKmegY-4">
          <mxGeometry width="80" relative="1" as="geometry">
            <mxPoint x="250" y="200" as="sourcePoint" />
            <mxPoint x="230" y="102" as="targetPoint" />
          </mxGeometry>
        </mxCell>
        <mxCell id="jEQE_5Eg6NX0n7uKmegY-4" value="Login server" style="html=1;whiteSpace=wrap;" vertex="1" parent="1">
          <mxGeometry x="270" y="85" width="110" height="50" as="geometry" />
        </mxCell>
        <mxCell id="jEQE_5Eg6NX0n7uKmegY-8" value="Access Denied" style="html=1;verticalAlign=bottom;endArrow=block;curved=0;rounded=0;" edge="1" parent="1" source="jEQE_5Eg6NX0n7uKmegY-4" target="jEQE_5Eg6NX0n7uKmegY-9">
          <mxGeometry width="80" relative="1" as="geometry">
            <mxPoint x="180" y="210" as="sourcePoint" />
            <mxPoint x="190" y="210" as="targetPoint" />
          </mxGeometry>
        </mxCell>
        <mxCell id="jEQE_5Eg6NX0n7uKmegY-9" value="Login Page" style="html=1;whiteSpace=wrap;" vertex="1" parent="1">
          <mxGeometry x="150" y="190" width="110" height="50" as="geometry" />
        </mxCell>
        <mxCell id="jEQE_5Eg6NX0n7uKmegY-10" value="TaskPage" style="html=1;whiteSpace=wrap;" vertex="1" parent="1">
          <mxGeometry x="480" y="85" width="110" height="50" as="geometry" />
        </mxCell>
        <mxCell id="jEQE_5Eg6NX0n7uKmegY-11" value="Access Aquired" style="html=1;verticalAlign=bottom;endArrow=block;curved=0;rounded=0;" edge="1" parent="1" source="jEQE_5Eg6NX0n7uKmegY-4" target="jEQE_5Eg6NX0n7uKmegY-10">
          <mxGeometry width="80" relative="1" as="geometry">
            <mxPoint x="280" y="120" as="sourcePoint" />
            <mxPoint x="190" y="120" as="targetPoint" />
          </mxGeometry>
        </mxCell>
        <mxCell id="jEQE_5Eg6NX0n7uKmegY-13" value="Task server" style="html=1;whiteSpace=wrap;" vertex="1" parent="1">
          <mxGeometry x="590" y="195" width="110" height="50" as="geometry" />
        </mxCell>
        <mxCell id="jEQE_5Eg6NX0n7uKmegY-15" value="All tasks" style="html=1;verticalAlign=bottom;endArrow=block;curved=0;rounded=0;" edge="1" parent="1" source="jEQE_5Eg6NX0n7uKmegY-13" target="jEQE_5Eg6NX0n7uKmegY-10">
          <mxGeometry width="80" relative="1" as="geometry">
            <mxPoint x="610" y="175" as="sourcePoint" />
            <mxPoint x="680" y="150" as="targetPoint" />
          </mxGeometry>
        </mxCell>
        <mxCell id="jEQE_5Eg6NX0n7uKmegY-16" value="Show tasks" style="html=1;verticalAlign=bottom;endArrow=block;curved=0;rounded=0;entryX=0.5;entryY=0.5;entryDx=0;entryDy=0;entryPerimeter=0;" edge="1" parent="1" source="jEQE_5Eg6NX0n7uKmegY-10" target="jEQE_5Eg6NX0n7uKmegY-1">
          <mxGeometry width="80" relative="1" as="geometry">
            <mxPoint x="465" y="230" as="sourcePoint" />
            <mxPoint x="365" y="145" as="targetPoint" />
          </mxGeometry>
        </mxCell>
      </root>
    </mxGraphModel>
  </diagram>
  <diagram id="1gnKMo6pnRdR9y1gdnJQ" name="DIagram bazy danych">
    <mxGraphModel dx="1434" dy="746" grid="1" gridSize="10" guides="1" tooltips="1" connect="1" arrows="1" fold="1" page="1" pageScale="1" pageWidth="827" pageHeight="1169" math="0" shadow="0">
      <root>
        <mxCell id="0" />
        <mxCell id="1" parent="0" />
        <mxCell id="kQdKvI3-PvAIlNIyNwbc-7" value="Baza MySQL - tabela tasks" style="swimlane;fontStyle=0;childLayout=stackLayout;horizontal=1;startSize=26;fillColor=none;horizontalStack=0;resizeParent=1;resizeParentMax=0;resizeLast=0;collapsible=1;marginBottom=0;html=1;" vertex="1" parent="1">
          <mxGeometry x="470" y="50" width="260" height="156" as="geometry" />
        </mxCell>
        <mxCell id="kQdKvI3-PvAIlNIyNwbc-8" value="Id: String" style="text;strokeColor=none;fillColor=none;align=left;verticalAlign=top;spacingLeft=4;spacingRight=4;overflow=hidden;rotatable=0;points=[[0,0.5],[1,0.5]];portConstraint=eastwest;whiteSpace=wrap;html=1;" vertex="1" parent="kQdKvI3-PvAIlNIyNwbc-7">
          <mxGeometry y="26" width="260" height="26" as="geometry" />
        </mxCell>
        <mxCell id="kQdKvI3-PvAIlNIyNwbc-12" value="Owner: String" style="text;strokeColor=none;fillColor=none;align=left;verticalAlign=top;spacingLeft=4;spacingRight=4;overflow=hidden;rotatable=0;points=[[0,0.5],[1,0.5]];portConstraint=eastwest;whiteSpace=wrap;html=1;" vertex="1" parent="kQdKvI3-PvAIlNIyNwbc-7">
          <mxGeometry y="52" width="260" height="26" as="geometry" />
        </mxCell>
        <mxCell id="kQdKvI3-PvAIlNIyNwbc-9" value="Name: String" style="text;strokeColor=none;fillColor=none;align=left;verticalAlign=top;spacingLeft=4;spacingRight=4;overflow=hidden;rotatable=0;points=[[0,0.5],[1,0.5]];portConstraint=eastwest;whiteSpace=wrap;html=1;" vertex="1" parent="kQdKvI3-PvAIlNIyNwbc-7">
          <mxGeometry y="78" width="260" height="26" as="geometry" />
        </mxCell>
        <mxCell id="kQdKvI3-PvAIlNIyNwbc-10" value="Status: Enum - TODO, IN PROGRESS, DONE" style="text;strokeColor=none;fillColor=none;align=left;verticalAlign=top;spacingLeft=4;spacingRight=4;overflow=hidden;rotatable=0;points=[[0,0.5],[1,0.5]];portConstraint=eastwest;whiteSpace=wrap;html=1;" vertex="1" parent="kQdKvI3-PvAIlNIyNwbc-7">
          <mxGeometry y="104" width="260" height="26" as="geometry" />
        </mxCell>
        <mxCell id="kQdKvI3-PvAIlNIyNwbc-11" value="Due Date: Date" style="text;strokeColor=none;fillColor=none;align=left;verticalAlign=top;spacingLeft=4;spacingRight=4;overflow=hidden;rotatable=0;points=[[0,0.5],[1,0.5]];portConstraint=eastwest;whiteSpace=wrap;html=1;" vertex="1" parent="kQdKvI3-PvAIlNIyNwbc-7">
          <mxGeometry y="130" width="260" height="26" as="geometry" />
        </mxCell>
      </root>
    </mxGraphModel>
  </diagram>
  <diagram id="kbDSwUO1FvMb9M-7Ufvq" name="Diagram bazy MongoDB">
    <mxGraphModel dx="1434" dy="746" grid="1" gridSize="10" guides="1" tooltips="1" connect="1" arrows="1" fold="1" page="1" pageScale="1" pageWidth="827" pageHeight="1169" math="0" shadow="0">
      <root>
        <mxCell id="0" />
        <mxCell id="1" parent="0" />
        <mxCell id="J_dR8bwyLra_vDo4VQ0s-1" value="Baza MongoDB - baza users - kolekcja user" style="swimlane;fontStyle=0;childLayout=stackLayout;horizontal=1;startSize=26;fillColor=none;horizontalStack=0;resizeParent=1;resizeParentMax=0;resizeLast=0;collapsible=1;marginBottom=0;html=1;" vertex="1" parent="1">
          <mxGeometry x="284" y="110" width="260" height="130" as="geometry" />
        </mxCell>
        <mxCell id="J_dR8bwyLra_vDo4VQ0s-2" value="Id: String" style="text;strokeColor=none;fillColor=none;align=left;verticalAlign=top;spacingLeft=4;spacingRight=4;overflow=hidden;rotatable=0;points=[[0,0.5],[1,0.5]];portConstraint=eastwest;whiteSpace=wrap;html=1;" vertex="1" parent="J_dR8bwyLra_vDo4VQ0s-1">
          <mxGeometry y="26" width="260" height="26" as="geometry" />
        </mxCell>
        <mxCell id="J_dR8bwyLra_vDo4VQ0s-3" value="Username: String" style="text;strokeColor=none;fillColor=none;align=left;verticalAlign=top;spacingLeft=4;spacingRight=4;overflow=hidden;rotatable=0;points=[[0,0.5],[1,0.5]];portConstraint=eastwest;whiteSpace=wrap;html=1;" vertex="1" parent="J_dR8bwyLra_vDo4VQ0s-1">
          <mxGeometry y="52" width="260" height="26" as="geometry" />
        </mxCell>
        <mxCell id="J_dR8bwyLra_vDo4VQ0s-4" value="Email: String" style="text;strokeColor=none;fillColor=none;align=left;verticalAlign=top;spacingLeft=4;spacingRight=4;overflow=hidden;rotatable=0;points=[[0,0.5],[1,0.5]];portConstraint=eastwest;whiteSpace=wrap;html=1;" vertex="1" parent="J_dR8bwyLra_vDo4VQ0s-1">
          <mxGeometry y="78" width="260" height="26" as="geometry" />
        </mxCell>
        <mxCell id="J_dR8bwyLra_vDo4VQ0s-5" value="Password: String" style="text;strokeColor=none;fillColor=none;align=left;verticalAlign=top;spacingLeft=4;spacingRight=4;overflow=hidden;rotatable=0;points=[[0,0.5],[1,0.5]];portConstraint=eastwest;whiteSpace=wrap;html=1;" vertex="1" parent="J_dR8bwyLra_vDo4VQ0s-1">
          <mxGeometry y="104" width="260" height="26" as="geometry" />
        </mxCell>
      </root>
    </mxGraphModel>
  </diagram>
  <diagram id="VDiomXin9gxIpg7YQNmY" name="Diagram stanów">
    <mxGraphModel dx="1434" dy="746" grid="1" gridSize="10" guides="1" tooltips="1" connect="1" arrows="1" fold="1" page="1" pageScale="1" pageWidth="827" pageHeight="1169" math="0" shadow="0">
      <root>
        <mxCell id="0" />
        <mxCell id="1" parent="0" />
        <mxCell id="ZXjfPlta9NmXqEs9fwuK-5" value="Login Page" style="html=1;whiteSpace=wrap;" vertex="1" parent="1">
          <mxGeometry x="249" y="180" width="110" height="50" as="geometry" />
        </mxCell>
        <mxCell id="ZXjfPlta9NmXqEs9fwuK-11" value="User login" style="html=1;verticalAlign=bottom;startArrow=oval;startFill=1;endArrow=block;startSize=8;curved=0;rounded=0;" edge="1" parent="1" target="ZXjfPlta9NmXqEs9fwuK-5">
          <mxGeometry width="60" relative="1" as="geometry">
            <mxPoint x="170" y="205" as="sourcePoint" />
            <mxPoint x="110" y="204.5" as="targetPoint" />
          </mxGeometry>
        </mxCell>
        <mxCell id="ZXjfPlta9NmXqEs9fwuK-12" value="Login Page" style="html=1;whiteSpace=wrap;" vertex="1" parent="1">
          <mxGeometry x="130" y="320" width="110" height="50" as="geometry" />
        </mxCell>
        <mxCell id="ZXjfPlta9NmXqEs9fwuK-13" value="login denied" style="html=1;verticalAlign=bottom;endArrow=block;curved=0;rounded=0;" edge="1" parent="1" source="ZXjfPlta9NmXqEs9fwuK-5" target="ZXjfPlta9NmXqEs9fwuK-12">
          <mxGeometry width="80" relative="1" as="geometry">
            <mxPoint x="260" y="280" as="sourcePoint" />
            <mxPoint x="340" y="280" as="targetPoint" />
          </mxGeometry>
        </mxCell>
        <mxCell id="ZXjfPlta9NmXqEs9fwuK-14" value="Task table" style="html=1;whiteSpace=wrap;" vertex="1" parent="1">
          <mxGeometry x="359" y="320" width="110" height="50" as="geometry" />
        </mxCell>
        <mxCell id="ZXjfPlta9NmXqEs9fwuK-15" value="login acquired" style="html=1;verticalAlign=bottom;endArrow=block;curved=0;rounded=0;" edge="1" parent="1" source="ZXjfPlta9NmXqEs9fwuK-5" target="ZXjfPlta9NmXqEs9fwuK-14">
          <mxGeometry width="80" relative="1" as="geometry">
            <mxPoint x="293" y="240" as="sourcePoint" />
            <mxPoint x="216" y="330" as="targetPoint" />
          </mxGeometry>
        </mxCell>
        <mxCell id="ZXjfPlta9NmXqEs9fwuK-16" value="Register Page" style="html=1;whiteSpace=wrap;" vertex="1" parent="1">
          <mxGeometry x="480" y="180" width="110" height="50" as="geometry" />
        </mxCell>
        <mxCell id="ZXjfPlta9NmXqEs9fwuK-17" value="User&amp;nbsp; register" style="html=1;verticalAlign=bottom;startArrow=oval;startFill=1;endArrow=block;startSize=8;curved=0;rounded=0;" edge="1" parent="1" target="ZXjfPlta9NmXqEs9fwuK-16">
          <mxGeometry width="60" relative="1" as="geometry">
            <mxPoint x="670" y="205" as="sourcePoint" />
            <mxPoint x="629" y="60.5" as="targetPoint" />
          </mxGeometry>
        </mxCell>
        <mxCell id="ZXjfPlta9NmXqEs9fwuK-20" value="register acquired" style="html=1;verticalAlign=bottom;endArrow=block;curved=0;rounded=0;" edge="1" parent="1" source="ZXjfPlta9NmXqEs9fwuK-16" target="ZXjfPlta9NmXqEs9fwuK-14">
          <mxGeometry width="80" relative="1" as="geometry">
            <mxPoint x="293" y="240" as="sourcePoint" />
            <mxPoint x="216" y="330" as="targetPoint" />
          </mxGeometry>
        </mxCell>
        <mxCell id="ZXjfPlta9NmXqEs9fwuK-21" value="Add task Page" style="html=1;whiteSpace=wrap;" vertex="1" parent="1">
          <mxGeometry x="180" y="440" width="110" height="50" as="geometry" />
        </mxCell>
        <mxCell id="ZXjfPlta9NmXqEs9fwuK-22" value="add task button" style="html=1;verticalAlign=bottom;endArrow=block;curved=0;rounded=0;" edge="1" parent="1" source="ZXjfPlta9NmXqEs9fwuK-14" target="ZXjfPlta9NmXqEs9fwuK-21">
          <mxGeometry width="80" relative="1" as="geometry">
            <mxPoint x="334" y="240" as="sourcePoint" />
            <mxPoint x="404" y="330" as="targetPoint" />
          </mxGeometry>
        </mxCell>
        <mxCell id="ZXjfPlta9NmXqEs9fwuK-24" value="task added" style="html=1;verticalAlign=bottom;endArrow=block;curved=0;rounded=0;exitX=1;exitY=1;exitDx=0;exitDy=0;entryX=0.5;entryY=1;entryDx=0;entryDy=0;" edge="1" parent="1" source="ZXjfPlta9NmXqEs9fwuK-21" target="ZXjfPlta9NmXqEs9fwuK-14">
          <mxGeometry width="80" relative="1" as="geometry">
            <mxPoint x="387" y="380" as="sourcePoint" />
            <mxPoint x="282" y="450" as="targetPoint" />
          </mxGeometry>
        </mxCell>
        <mxCell id="ZXjfPlta9NmXqEs9fwuK-25" value="Add task Page" style="html=1;whiteSpace=wrap;" vertex="1" parent="1">
          <mxGeometry x="474.54" y="440" width="110" height="50" as="geometry" />
        </mxCell>
        <mxCell id="ZXjfPlta9NmXqEs9fwuK-26" value="edit task button" style="html=1;verticalAlign=bottom;endArrow=block;curved=0;rounded=0;entryX=1;entryY=0;entryDx=0;entryDy=0;exitX=1;exitY=1;exitDx=0;exitDy=0;" edge="1" parent="1" target="ZXjfPlta9NmXqEs9fwuK-25" source="ZXjfPlta9NmXqEs9fwuK-14">
          <mxGeometry width="80" relative="1" as="geometry">
            <mxPoint x="409.9983333333333" y="370" as="sourcePoint" />
            <mxPoint x="698.54" y="330" as="targetPoint" />
          </mxGeometry>
        </mxCell>
        <mxCell id="ZXjfPlta9NmXqEs9fwuK-27" value="task edited" style="html=1;verticalAlign=bottom;endArrow=block;curved=0;rounded=0;exitX=0;exitY=1;exitDx=0;exitDy=0;" edge="1" parent="1" source="ZXjfPlta9NmXqEs9fwuK-25">
          <mxGeometry width="80" relative="1" as="geometry">
            <mxPoint x="681.54" y="380" as="sourcePoint" />
            <mxPoint x="414.05724137931026" y="370" as="targetPoint" />
          </mxGeometry>
        </mxCell>
      </root>
    </mxGraphModel>
  </diagram>
</mxfile>
